<?xml version="1.0" encoding="utf-8"?>
<!-- Generator: Adobe Illustrator 27.5.0, SVG Export Plug-In . SVG Version: 6.00 Build 0)  -->
<svg version="1.1" id="katman_1" xmlns="http://www.w3.org/2000/svg" xmlns:xlink="http://www.w3.org/1999/xlink" x="0px" y="0px"
	 viewBox="0 0 5000 5000" style="enable-background:new 0 0 5000 5000;" xml:space="preserve">
<g>
	<g>
		<defs>
			<rect id="SVGID_1_" x="608" y="1024" width="3783" height="2952.92"/>
		</defs>
		<clipPath id="SVGID_00000090259904217838164690000016981819669049133751_">
			<use xlink:href="#SVGID_1_"  style="overflow:visible;"/>
		</clipPath>
		<path style="clip-path:url(#SVGID_00000090259904217838164690000016981819669049133751_);" d="M2199.613,1025.687l2.992-0.485
			c9.446-0.183,24.059,9.039,29.676,16.105c10.891,13.699,5.828,225.687,5.633,263.312c29,3.223,60.477,0.86,89.719,0.879
			l182.639,0.07l-0.07-161.882c0-31.899-12.207-111.789,33.766-119.145c49.191-7.867,32.664,80.606,32.64,108.527l0.098,172.434
			l138.477-0.102c72.703,0.04,85.789-15.585,84.472,68.68l-0.465,96.293c-0.171,74.024,4.004,150.047,0.051,223.852
			c-2.101,39.34-84.914,23.629-113.137,25.129l5.325,159.183c1,42.485-8.668,44.164-47.977,44.016l-185.156,0.164
			c-0.219,30.805,6.57,224.754-4.149,235.41c-14.625,14.551-49.343,16.133-61.402-2.883c-9.18-14.437-3.027-196.929-1.707-224.738
			c-19.191-2.66-39.898-1.359-59.312-1.477l-100.543-0.562c-98.477-0.727-96.067-2.695-96.176-90.293l0.066-111.727
			c-22.258-4.246-123.5,7.243-132.312-17.168c-4.051-11.214-2.239-28.89-2.278-40.785l-0.156-244.062
			c0.09-78.973-22.605-118.551,77.246-118.903l92.86-0.027c2.859-21.5,1.152-44.727,1.156-66.519l-0.235-120.954
			C2170.926,1083.389,2159.078,1041.315,2199.613,1025.687L2199.613,1025.687z M2064.52,1368.463l0.015,189.555
			c0.02,30.429-2.828,64,1.153,94.074l671.273,4.402l-0.246-286L2064.52,1368.463z M2617.211,1715.424l-414.215,2.008l-0.629,92.636
			c-0.211,36.75-10.742,43.692,27.278,49.364l3.425-0.528c13.5-1.914,29.016-0.328,42.684-0.175l357.348,1.543l-0.196-106.969
			c-0.07-13.567,4.348-28.438-5.64-38.785L2617.211,1715.424z M2617.211,1715.424"/>
		<path style="clip-path:url(#SVGID_00000090259904217838164690000016981819669049133751_);" d="M3187.938,2320.994l87.207,0.114
			c135.351-0.579,199.437,62.23,299.804,146.656l119.555,104.789c46.777,44.074,97.898,101.84,158.863,124.742l273.805,91.527
			c27.367,9.231,70.531,19.383,88.988,42.797l3.27,4.785c16.336,24.465,15.039,52.469,15.113,80.618l0.074,70.628
			c0,15.258-4.812,35.817,9.985,45.508l138.132,89.793c6.715,24.414,4.985,53.492,5.301,78.641l0.902,123.805
			c0.243,43.285,5.102,92.722-1.441,135.179l-4.269,25.805c-28.446,139.695-148.27,197.312-279.274,199.512l-73.242,0.121
			c-28.371-0.391-23.731-3.809-30.789,25.269c-85.715,353.539-644.922,365.379-728.074-46.851
			c-8.739-3.004-28.66,0.781-38.844,0.832l-1051.188,0.758c-22.55,0.414-44.398,5.32-66.625,5.785l-289.609,2.39l-79.988,4.52
			c-4.828,59.25-41.61,119.625-79.707,163.644c-122.293,141.262-320.223,168.704-485.446,92.309l-11.164-5.344
			c-105.668-54.515-155.129-150.515-187.902-258.301c-40.301,4.59-178.117,5.934-216.895-1.148
			c-242.351-44.262-155.882-465.062-52.996-617.918c98.27-146,261.766-234.719,434.778-254.641
			c58.207-6.714,119.269-3.32,177.883-3.832l178.023-6.714c24.637-1.879,29.168-11.45,47.16-27.465l127.184-124.981
			c100.972-97.859,218.718-169.851,343.609-232.941c140.414-70.926,209.461-79.235,365.301-79.535L3187.938,2320.994z
			 M2601.559,2387.584l-211.426,0.219c-71.809,0.164-140.703-0.84-210.098,20.543c-154.734,47.679-358,180.453-471.597,288.484
			c-21.047,20.02-49.879,42.113-66.86,65.309l-5.027,8.863c-2.707,4.832-6.438,7.25-10.86,10.398
			c33.571,4.004,71.102,0.758,105.207,0.758l1780.915,0.391c19.921,0.047,40.992-1.027,60.742,1.684
			c41.773,5.714,38.625,63.234-10.133,65.308l-1962.914,1.391c-19.86,0.246-39.395,3.711-59.199,4.808l-158.575,7.52
			c-112.839,5.64-224.597-9.324-334.785,23.609c-125.625,37.551-282.008,152.223-321.992,284.938
			c31.41-3.153,81.043-8.571,111.246-0.098c24.492,21.606,23.652,70.02-14.648,71.75l-81.235,0.441
			c-11.84,0.098-26.07-1.316-37.601,1.223c-28.84,77.953-43.758,194.578-13.836,272.606l1.445,3.832
			c49.777,128.687,172.492,79.664,285.129,86.183c-0.379-49.293,1.387-91.75,14.262-139.648
			c152.308-445.071,775.386-321.606,766.594,136.863l1450.226,5.492c17.188,0.196,35.645-0.609,52.469,2.883l-0.195-2.883
			c-15.286-251.562,203.906-469.847,455.808-412.89c174.852,39.554,304.152,197.144,310.668,375.882
			c0.219,6.344-2.465,31.493,0.414,35.25c156.473,8.231,294.875-3.757,303.444-197.043l0.462-126.757
			c-0.242-42.36,0.391-85.012-4.563-127.125l-74.707-41.137c-96.485-54.664-84.301-86.328-81.91-186.648
			c1.682-69.727-37.965-65.379-104.688-90.965l-181.203-63.063c-117.552-37.816-110.496-41.406-200.586-126.406
			c-84.738-79.996-238.035-228.727-353.074-258.516l-2.981-0.793c-20.992-5.257-47.214-2.683-68.82-2.695L2601.559,2387.584z
			 M1357.926,3261.943c-183.184,9.4-334.539,150.977-324.844,339.5l4.93,42.653c31.402,169.703,170.883,259.84,335.91,259.105
			c85.836-3.125,168.211-34.445,227.43-98.582C1804.098,3585.014,1629.531,3238.576,1357.926,3261.943L1357.926,3261.943z
			 M3620.578,3262.236c-170.164,19.068-334.203,167.797-311.988,346.559l0.465,3.563c20.433,177.148,157.008,289.281,331.715,292.48
			c55.808-1.93,108.519-9.277,157.589-37.719c148.149-85.816,210.329-293.238,122.782-443.043l-10.012-16.406
			C3847.238,3303.69,3739.402,3253.983,3620.578,3262.236L3620.578,3262.236z M3620.578,3262.236"/>
	</g>
	<path d="M3620.699,3427.472c58.715-3.297,116.528,18.504,146.145,72.558l2.269,4.172c20.313,36.942,32.203,85.793,20.043,127.25
		l-1.269,4.102c-17.895,60.25-68.699,90.672-128.809,100.68C3444.258,3764.483,3417.379,3459.67,3620.699,3427.472
		L3620.699,3427.472z M3626.07,3488.115c-135.398,33.836-95.484,205.688,28.93,188.547l10.305-0.679
		C3797.973,3629.522,3755.32,3481.01,3626.07,3488.115L3626.07,3488.115z M3626.07,3488.115"/>
	<path d="M1345.324,3427.42c200.723-8.984,249.391,269.313,45.621,311.258C1167.434,3762.432,1141.922,3462.898,1345.324,3427.42
		L1345.324,3427.42z M1352,3493.045c-122.203,32.641-104.676,180.91,26.473,177.539c107.566-22.191,101.066-155.078,0.941-175.656
		l-2.625-0.586C1368.52,3492.558,1360.41,3492.851,1352,3493.045L1352,3493.045z M1352,3493.045"/>
	<path d="M2753.977,2964.455c36.132-0.73,128.343-9.301,83.472,64.16c-15.699,25.688-39.039,49.907-57.886,73.489l-105.469,128.882
		c-18.114,21.387-36.571,45.215-56.883,64.379c-33.398,31.52-92.848-8.351-21.731-78.734l143.286-177.492l-119.336-0.071
		c-34.157,0.094-94.434,10.278-99.317-38.281c13.746-37.601,40.969-32.179,74.023-33.765L2753.977,2964.455z M2753.977,2964.455"/>
</g>
</svg>
